<?xml version="1.0" encoding="UTF-8"?>
<!DOCTYPE svg PUBLIC "-//W3C//DTD SVG 1.1//EN" "http://www.w3.org/Graphics/SVG/1.1/DTD/svg11.dtd">
<!-- Creator: CorelDRAW -->
<svg xmlns="http://www.w3.org/2000/svg" xml:space="preserve" width="137.494mm" height="29.7893mm" style="shape-rendering:geometricPrecision; text-rendering:geometricPrecision; image-rendering:optimizeQuality; fill-rule:evenodd; clip-rule:evenodd"
viewBox="0 0 101.865 22.07"
 xmlns:xlink="http://www.w3.org/1999/xlink">
 <defs>
  <style type="text/css">
   <![CDATA[
    .fil2 {fill:white}
    .fil1 {fill:#0B8CB4}
    .fil0 {fill:#E58933}
    .fil3 {fill:#0B8CB4;fill-rule:nonzero}
    .fil4 {fill:#E58933;fill-rule:nonzero}
   ]]>
  </style>
 </defs>
 <g id="Слой_x0020_1">
  <metadata id="CorelCorpID_0Corel-Layer"/>
  <path class="fil0" d="M31.1343 11.0349c0,6.09476 -4.94056,11.035 -11.0349,11.035 -6.09446,0 -11.0355,-4.94026 -11.0355,-11.035 0,-6.09498 4.94107,-11.0349 11.0355,-11.0349 6.09446,0 11.0349,4.94004 11.0349,11.0349z"/>
  <path class="fil1" d="M40.1986 11.0347c0,0 -1.65132,-2.94006 -4.40943,-6.30168 0.783024,1.94819 1.21843,4.07359 1.21843,6.3019 0,2.22838 -0.43489,4.35357 -1.21843,6.30124 2.75818,-3.36139 4.40943,-6.30146 4.40943,-6.30146z"/>
  <path class="fil1" d="M3.19048 11.0349c0,-2.22757 0.43489,-4.35268 1.21799,-6.30035 -2.75818,3.3608 -4.40846,6.30012 -4.40846,6.30012 0,0 1.65028,2.93903 4.40846,6.2999 -0.783098,-1.94745 -1.21799,-4.07204 -1.21799,-6.29968z"/>
  <path class="fil2" d="M28.3953 11.0349c0,4.58175 -3.7142,8.29588 -8.29595,8.29588 -4.58235,0 -8.29654,-3.71412 -8.29654,-8.29588 0,-4.58183 3.7142,-8.29662 8.29654,-8.29662 4.58175,0 8.29595,3.71486 8.29595,8.29662z"/>
  <path class="fil1" d="M22.8768 11.6131c-1.39417,0 -2.52377,-1.1299 -2.52377,-2.52347 0,-0.964981 0.541575,-1.80261 1.33742,-2.22727 -0.495271,-0.189292 -1.03055,-0.296718 -1.59116,-0.296718 -2.46857,0 -4.46981,2.00079 -4.46981,4.46929 0,2.46857 2.00123,4.46936 4.46981,4.46936 2.46806,0 4.46929,-2.00079 4.46929,-4.46936 0,-0.0243005 -0.00370434,-0.048601 -0.00370434,-0.0731237 -0.447707,0.403477 -1.03788,0.651298 -1.68807,0.651298z"/>
  <path class="fil3" d="M52.4628 4.65428l0 1.03781 2.89272 0 0 0.0220779c-0.130689,0.15825 -0.259452,0.318351 -0.386437,0.476601 -0.125133,0.160102 -0.25397,0.323908 -0.386437,0.494974l-2.35167 3.2902 0 0.761835 4.7034 0 0 -1.03781 -3.13565 0 0 -0.0220779c0.132541,-0.154619 0.263157,-0.314721 0.390141,-0.478453 0.128763,-0.165658 0.255748,-0.333095 0.382733,-0.504235l2.30751 -3.23493 0 -0.805991 -4.41632 0z"/>
  <path id="1" class="fil3" d="M60.6653 4.52174c-0.404885,0 -0.782061,0.0717902 -1.12805,0.213518 -0.347764,0.141654 -0.651372,0.349616 -0.910824,0.621959 -0.261304,0.274121 -0.46371,0.61092 -0.609142,1.0084 -0.145358,0.399254 -0.220779,0.855629 -0.222631,1.36905 0.00185217,0.491344 0.0736423,0.931124 0.213444,1.31756 0.139876,0.386437 0.334947,0.712123 0.585212,0.980762 0.252043,0.268639 0.546465,0.474749 0.883264,0.614625 0.336725,0.139876 0.702936,0.20974 1.10041,0.211592 0.275974,0 0.550169,-0.0385993 0.822512,-0.115872 0.272343,-0.0773467 0.528091,-0.196923 0.771022,-0.360729 0.242931,-0.16188 0.458227,-0.369842 0.645889,-0.621959 0.189514,-0.253896 0.336725,-0.555726 0.443484,-0.907194 0.108537,-0.349616 0.163732,-0.752574 0.165584,-1.2071 -0.00185217,-0.467414 -0.0662336,-0.894302 -0.196849,-1.27526 -0.128837,-0.382733 -0.316499,-0.712123 -0.557578,-0.986318 -0.242931,-0.275974 -0.531795,-0.48764 -0.870372,-0.636702 -0.338651,-0.148989 -0.717679,-0.224483 -1.13538,-0.226335zm1.44632 3.15773c0,0.30546 -0.034969,0.592547 -0.103055,0.859333 -0.069938,0.266787 -0.169288,0.502383 -0.299904,0.70664 -0.130689,0.202405 -0.287087,0.362507 -0.47297,0.476601 -0.183958,0.115872 -0.393772,0.174771 -0.625589,0.176623 -0.235596,-0.00185217 -0.445336,-0.0607512 -0.63122,-0.174845 -0.183958,-0.115872 -0.342207,-0.274121 -0.471044,-0.476601 -0.130689,-0.202405 -0.228188,-0.436075 -0.296273,-0.699232 -0.0680858,-0.264935 -0.103055,-0.546539 -0.103055,-0.846442 0,-0.211592 0.0165955,-0.423258 0.0515645,-0.632998 0.0367471,-0.211666 0.0919418,-0.412219 0.165584,-0.601733 0.0754204,-0.189588 0.172993,-0.358877 0.290717,-0.506087 0.11965,-0.147211 0.261304,-0.263082 0.426963,-0.347764 0.167436,-0.0864594 0.358803,-0.128837 0.577803,-0.130615 0.213444,0.00177808 0.402958,0.0460079 0.566764,0.132467 0.163732,0.0846072 0.303608,0.202405 0.421332,0.351468 0.115946,0.149063 0.211666,0.316499 0.287087,0.506013 0.0736423,0.187736 0.128837,0.386437 0.163806,0.592547 0.034969,0.20611 0.0514904,0.412219 0.0514904,0.614625z"/>
  <path id="12" class="fil3" d="M67.3773 4.52174c-0.404885,0 -0.782061,0.0717902 -1.12805,0.213518 -0.347764,0.141654 -0.651372,0.349616 -0.910824,0.621959 -0.261304,0.274121 -0.46371,0.61092 -0.609142,1.0084 -0.145358,0.399254 -0.220779,0.855629 -0.222631,1.36905 0.00185217,0.491344 0.0736423,0.931124 0.213444,1.31756 0.139876,0.386437 0.334947,0.712123 0.585212,0.980762 0.252043,0.268639 0.546465,0.474749 0.883264,0.614625 0.336725,0.139876 0.702936,0.20974 1.10041,0.211592 0.275974,0 0.550169,-0.0385993 0.822512,-0.115872 0.272343,-0.0773467 0.528091,-0.196923 0.771022,-0.360729 0.242931,-0.16188 0.458227,-0.369842 0.645889,-0.621959 0.189514,-0.253896 0.336725,-0.555726 0.443484,-0.907194 0.108537,-0.349616 0.163732,-0.752574 0.165584,-1.2071 -0.00185217,-0.467414 -0.0662336,-0.894302 -0.196849,-1.27526 -0.128837,-0.382733 -0.316499,-0.712123 -0.557578,-0.986318 -0.242931,-0.275974 -0.531795,-0.48764 -0.870372,-0.636702 -0.338651,-0.148989 -0.717679,-0.224483 -1.13538,-0.226335zm1.44632 3.15773c0,0.30546 -0.034969,0.592547 -0.103055,0.859333 -0.069938,0.266787 -0.169288,0.502383 -0.299904,0.70664 -0.130689,0.202405 -0.287087,0.362507 -0.47297,0.476601 -0.183958,0.115872 -0.393772,0.174771 -0.625589,0.176623 -0.235596,-0.00185217 -0.445336,-0.0607512 -0.63122,-0.174845 -0.183958,-0.115872 -0.342207,-0.274121 -0.471044,-0.476601 -0.130689,-0.202405 -0.228188,-0.436075 -0.296273,-0.699232 -0.0680858,-0.264935 -0.103055,-0.546539 -0.103055,-0.846442 0,-0.211592 0.0165955,-0.423258 0.0515645,-0.632998 0.0367471,-0.211666 0.0919418,-0.412219 0.165584,-0.601733 0.0754204,-0.189588 0.172993,-0.358877 0.290717,-0.506087 0.11965,-0.147211 0.261304,-0.263082 0.426963,-0.347764 0.167436,-0.0864594 0.358803,-0.128837 0.577803,-0.130615 0.213444,0.00177808 0.402958,0.0460079 0.566764,0.132467 0.163732,0.0846072 0.303608,0.202405 0.421332,0.351468 0.115946,0.149063 0.211666,0.316499 0.287087,0.506013 0.0736423,0.187736 0.128837,0.386437 0.163806,0.592547 0.034969,0.20611 0.0514904,0.412219 0.0514904,0.614625z"/>
  <path id="123" class="fil3" d="M79.9519 7.06114c-0.00185217,-0.478379 -0.0588991,-0.881411 -0.169288,-1.2071 -0.110464,-0.327538 -0.257674,-0.58699 -0.439854,-0.783913 -0.183958,-0.195071 -0.388215,-0.334873 -0.61092,-0.421406 -0.222631,-0.0864594 -0.448966,-0.128763 -0.679006,-0.126985 -0.290717,0.00185217 -0.552021,0.0478601 -0.783913,0.139876 -0.231818,0.0920159 -0.437927,0.220853 -0.618255,0.386437 -0.180327,0.167436 -0.338577,0.362507 -0.474749,0.588842l-0.0220779 0c-0.0846813,-0.23004 -0.204257,-0.426888 -0.358877,-0.594399 -0.154545,-0.165584 -0.336725,-0.294421 -0.548317,-0.384585 -0.211666,-0.0901637 -0.445336,-0.134319 -0.704788,-0.136172 -0.231892,0.00185217 -0.43978,0.0313387 -0.627516,0.0883856 -0.18581,0.058825 -0.351468,0.136172 -0.496826,0.23367 -0.145358,0.0993505 -0.272343,0.207962 -0.380881,0.32939 -0.106759,0.121428 -0.198775,0.246561 -0.272343,0.375398l-0.0331168 0 -0.0663077 -0.894302 -1.10404 0c0.0073346,0.171141 0.0147433,0.345912 0.0220779,0.522609 0.00548243,0.176623 0.0110389,0.360655 0.0165214,0.555726 0.00370434,0.194997 0.00555651,0.406663 0.00555651,0.632998l0 4.37216 1.25866 0 0 -3.68767c0.00185217,-0.241005 0.0385993,-0.452671 0.110389,-0.636702 0.0717902,-0.183958 0.167436,-0.338577 0.287087,-0.46371 0.119576,-0.125133 0.250265,-0.218927 0.393772,-0.283382 0.143506,-0.0643815 0.288939,-0.0956461 0.434297,-0.0956461 0.246561,0.00185217 0.447114,0.069938 0.603586,0.200553 0.156397,0.130689 0.272343,0.309164 0.345912,0.533648 0.0736423,0.224483 0.110389,0.480305 0.110389,0.767318l0 3.6656 1.25866 0 0 -3.75391c0.00185217,-0.220779 0.034969,-0.419554 0.103055,-0.594325 0.0662336,-0.172993 0.156397,-0.322056 0.268639,-0.443484 0.112316,-0.121502 0.239226,-0.215296 0.379102,-0.279752 0.139876,-0.0625293 0.283382,-0.0956461 0.430593,-0.0956461 0.2576,0.00185217 0.467414,0.0717902 0.629294,0.211592 0.163806,0.139876 0.283382,0.334947 0.360729,0.588842 0.0772726,0.252118 0.115872,0.548391 0.114094,0.88882l0 3.47786 1.25866 0 0 -3.67663z"/>
  <path id="1234" class="fil3" d="M86.0125 6.99491c0.00185217,-0.325686 -0.0331168,-0.636702 -0.104907,-0.931124 -0.0735682,-0.296273 -0.195071,-0.559356 -0.366137,-0.789395 -0.172993,-0.231892 -0.406737,-0.414071 -0.702936,-0.548391 -0.296273,-0.132467 -0.666189,-0.202405 -1.11145,-0.204257 -0.274195,0.00185217 -0.53187,0.0239301 -0.776578,0.069938 -0.244709,0.0460079 -0.467414,0.106759 -0.669819,0.184032 -0.200553,0.0754204 -0.373546,0.160102 -0.518904,0.25397l0.265009 0.850147c0.130615,-0.0846813 0.274121,-0.160102 0.434223,-0.222705 0.160102,-0.0625293 0.32939,-0.110389 0.507865,-0.145358 0.176697,-0.0331168 0.355172,-0.0514904 0.537352,-0.0514904 0.242931,0.00177808 0.443484,0.0348949 0.598029,0.0974983 0.154619,0.0625293 0.276048,0.147211 0.362507,0.250265 0.0865334,0.103055 0.149063,0.215296 0.185884,0.336725 0.0386733,0.121428 0.0607512,0.241079 0.069938,0.358877 0.0073346,0.117724 0.0110389,0.222631 0.00918677,0.314647 -0.522609,0 -0.993653,0.0478601 -1.41143,0.141654 -0.417702,0.093868 -0.774652,0.233744 -1.07093,0.423258 -0.296273,0.187662 -0.522609,0.423258 -0.680858,0.70664 -0.156397,0.283382 -0.235522,0.612772 -0.237374,0.991801 0,0.237374 0.0404514,0.461857 0.119576,0.673524 0.0791248,0.213444 0.195071,0.401106 0.347838,0.566764 0.152693,0.165584 0.340429,0.296273 0.561208,0.391919 0.222705,0.093868 0.474749,0.143506 0.759983,0.145358 0.25397,-0.00185217 0.489492,-0.0385993 0.702936,-0.108537 0.215296,-0.0717902 0.406663,-0.169288 0.574099,-0.294421 0.16751,-0.123281 0.309164,-0.265009 0.423258,-0.42511l0.0331168 0 0.0883115 0.70664 1.15931 0c-0.0368212,-0.202405 -0.0625293,-0.426888 -0.0735682,-0.677154 -0.0110389,-0.250265 -0.0165955,-0.506087 -0.0147433,-0.76917l0 -2.29654zm-1.24762 1.68925c-0.00185217,0.237374 -0.0607512,0.44904 -0.174845,0.63485 -0.11402,0.185884 -0.264935,0.331242 -0.456301,0.438001 -0.191366,0.106685 -0.403032,0.16188 -0.638555,0.163732 -0.160102,0 -0.307312,-0.0331168 -0.443484,-0.103055 -0.134319,-0.0680858 -0.242857,-0.172993 -0.323834,-0.316499 -0.0828291,-0.143506 -0.125133,-0.327538 -0.126985,-0.552021 0.00185217,-0.215296 0.0441558,-0.397476 0.128837,-0.548391 0.0846072,-0.149063 0.198701,-0.270491 0.344059,-0.366211 0.145358,-0.0956461 0.309164,-0.167436 0.495048,-0.220779 0.18581,-0.0515645 0.380881,-0.0864594 0.585138,-0.106759 0.204257,-0.0202257 0.408515,-0.0294125 0.61092,-0.0275603l0 1.00469z"/>
  <path id="12345" class="fil3" d="M88.0763 4.65428l-0.86126 0 0 0.960536 0.86126 0 0 3.14662c0,0.395624 0.0367471,0.725014 0.110389,0.991875 0.0735682,0.264935 0.187662,0.478453 0.342281,0.642185 0.134319,0.149063 0.30546,0.265009 0.511496,0.344133 0.204257,0.0791248 0.436149,0.119576 0.691897,0.119576 0.215296,0 0.408515,-0.0128911 0.576025,-0.0385993 0.167436,-0.0257822 0.307312,-0.0607512 0.417702,-0.104907l-0.0441558 -0.982614c-0.0754945,0.0220779 -0.156471,0.0404514 -0.244783,0.0551947 -0.0864594,0.0146692 -0.193219,0.0220779 -0.318351,0.0220779 -0.268639,0 -0.465562,-0.0920159 -0.588842,-0.276048 -0.125133,-0.184032 -0.18581,-0.46371 -0.183958,-0.839108l0 -3.08038 1.44632 0 0 -0.960536 -1.44632 0 0 -1.50159 -1.2697 0.397476 0 1.10412z"/>
  <path id="123456" class="fil3" d="M94.5785 4.52174c-0.404885,0 -0.782061,0.0717902 -1.12805,0.213518 -0.347764,0.141654 -0.651372,0.349616 -0.910824,0.621959 -0.261304,0.274121 -0.46371,0.61092 -0.609142,1.0084 -0.145358,0.399254 -0.220779,0.855629 -0.222631,1.36905 0.00185217,0.491344 0.0736423,0.931124 0.213444,1.31756 0.139876,0.386437 0.334947,0.712123 0.585212,0.980762 0.252043,0.268639 0.546465,0.474749 0.883264,0.614625 0.336725,0.139876 0.702936,0.20974 1.10041,0.211592 0.275974,0 0.550169,-0.0385993 0.822512,-0.115872 0.272343,-0.0773467 0.528091,-0.196923 0.771022,-0.360729 0.242931,-0.16188 0.458227,-0.369842 0.645889,-0.621959 0.189514,-0.253896 0.336725,-0.555726 0.443484,-0.907194 0.108537,-0.349616 0.163732,-0.752574 0.165584,-1.2071 -0.00185217,-0.467414 -0.0662336,-0.894302 -0.196849,-1.27526 -0.128837,-0.382733 -0.316499,-0.712123 -0.557578,-0.986318 -0.242931,-0.275974 -0.531795,-0.48764 -0.870372,-0.636702 -0.338651,-0.148989 -0.717679,-0.224483 -1.13538,-0.226335zm1.44632 3.15773c0,0.30546 -0.034969,0.592547 -0.103055,0.859333 -0.069938,0.266787 -0.169288,0.502383 -0.299904,0.70664 -0.130689,0.202405 -0.287087,0.362507 -0.47297,0.476601 -0.183958,0.115872 -0.393772,0.174771 -0.625589,0.176623 -0.235596,-0.00185217 -0.445336,-0.0607512 -0.63122,-0.174845 -0.183958,-0.115872 -0.342207,-0.274121 -0.471044,-0.476601 -0.130689,-0.202405 -0.228188,-0.436075 -0.296273,-0.699232 -0.0680858,-0.264935 -0.103055,-0.546539 -0.103055,-0.846442 0,-0.211592 0.0165955,-0.423258 0.0515645,-0.632998 0.0367471,-0.211666 0.0919418,-0.412219 0.165584,-0.601733 0.0754204,-0.189588 0.172993,-0.358877 0.290717,-0.506087 0.11965,-0.147211 0.261304,-0.263082 0.426963,-0.347764 0.167436,-0.0864594 0.358803,-0.128837 0.577803,-0.130615 0.213444,0.00177808 0.402958,0.0460079 0.566764,0.132467 0.163732,0.0846072 0.303608,0.202405 0.421332,0.351468 0.115946,0.149063 0.211666,0.316499 0.287087,0.506013 0.0736423,0.187736 0.128837,0.386437 0.163806,0.592547 0.034969,0.20611 0.0514904,0.412219 0.0514904,0.614625z"/>
  <path id="1234567" class="fil3" d="M101.865 4.55486c-0.0533425,-0.0110389 -0.106685,-0.0202257 -0.156397,-0.0257081 -0.0497123,-0.00555651 -0.104907,-0.00740869 -0.163806,-0.00740869 -0.222631,0.00185217 -0.437927,0.0515645 -0.642185,0.150915 -0.20611,0.101203 -0.390141,0.242931 -0.552021,0.428741 -0.161954,0.185884 -0.290791,0.408515 -0.384585,0.667967l-0.0441558 0 -0.0442299 -1.11508 -1.11508 0c0.0165214,0.279678 0.0275603,0.570395 0.034969,0.874077 0.00548243,0.301756 0.00918677,0.629294 0.00918677,0.980762l0 4.22866 1.28074 0 0 -3.22396c0.00185217,-0.355098 0.0588991,-0.666115 0.172993,-0.929271 0.112242,-0.263082 0.274121,-0.469192 0.482083,-0.61455 0.209814,-0.147211 0.458227,-0.220853 0.747092,-0.222705 0.0717902,0 0.138024,0.00185217 0.200627,0.00740869 0.0606771,0.00548243 0.119576,0.0146692 0.174771,0.0257081l0 -1.22554z"/>
  <path id="12345678" class="fil4" d="M53.0551 14.7406l-0.0355617 -0.498382 -0.605141 0c0.00592695,0.144395 0.0118539,0.303534 0.0167436,0.476601 0.00400069,0.17403 0.00696416,0.366878 0.00696416,0.579433l0 3.53602 0.688193 0 0 -1.70867 0.0118539 0c0.0543798,0.0899414 0.123651,0.168103 0.210629,0.2353 0.0860148,0.0672709 0.184921,0.120687 0.296644,0.15825 0.11276,0.037562 0.233374,0.0563801 0.364878,0.0573432 0.138468,0 0.274862,-0.0217815 0.408367,-0.0662336 0.133505,-0.0435631 0.258119,-0.11076 0.375769,-0.200775 0.116687,-0.0899414 0.220482,-0.203665 0.309535,-0.342133 0.0899414,-0.137431 0.160176,-0.30057 0.210555,-0.488455 0.0514163,-0.187884 0.0771244,-0.401477 0.0781616,-0.640777 -0.00103722,-0.254118 -0.0336354,-0.483491 -0.0979428,-0.688193 -0.0642333,-0.204702 -0.154249,-0.379695 -0.269898,-0.526017 -0.115724,-0.145358 -0.252192,-0.257081 -0.408367,-0.335243 -0.156249,-0.0780875 -0.326353,-0.116687 -0.511273,-0.11765 -0.229373,0.000963129 -0.431111,0.0494159 -0.606105,0.146322 -0.174993,0.0979428 -0.318425,0.238337 -0.432149,0.423258l-0.0118539 0zm0.0711975 0.848369c0.00103722,-0.120613 0.0207443,-0.233374 0.0613439,-0.338132 0.0395624,-0.104833 0.0949053,-0.195812 0.16514,-0.274936 0.0701603,-0.0791248 0.150248,-0.141358 0.241227,-0.185884 0.0919418,-0.0445262 0.188847,-0.0662336 0.29168,-0.0672709 0.132541,0.00103722 0.248191,0.030672 0.349097,0.0900155 0.0998691,0.0593436 0.184921,0.141432 0.252118,0.246191 0.068234,0.10387 0.11965,0.224483 0.154249,0.361914 0.0345986,0.137431 0.0514163,0.283827 0.0514163,0.441039 0,0.170029 -0.0177808,0.326279 -0.0533425,0.46771 -0.0356358,0.142395 -0.0890524,0.265972 -0.15825,0.370805 -0.0701603,0.103796 -0.156249,0.184921 -0.259082,0.243227 -0.101795,0.0573432 -0.220482,0.0860148 -0.353987,0.0870521 -0.0860148,0 -0.17203,-0.0158546 -0.258045,-0.0484528 -0.0870521,-0.0317092 -0.16714,-0.0820882 -0.239301,-0.149359 -0.0731978,-0.068234 -0.131504,-0.154249 -0.17603,-0.260045 -0.0444521,-0.105796 -0.0671968,-0.232336 -0.068234,-0.378732l0 -0.605141z"/>
  <path id="123456789" class="fil4" d="M57.8187 14.1888c-0.0286716,-0.00592695 -0.0573432,-0.0108908 -0.0840145,-0.0138542 -0.0267454,-0.00296347 -0.0563801,-0.0039266 -0.0880152,-0.0039266 -0.11965,0.000963129 -0.235374,0.0277085 -0.345097,0.081051 -0.11076,0.0543798 -0.209666,0.130541 -0.296644,0.23041 -0.0870521,0.0998691 -0.156249,0.219519 -0.206702,0.358951l-0.0237078 0 -0.0237078 -0.599214 -0.599214 0c0.00889042,0.150322 0.0148174,0.306497 0.018744,0.469711 0.00296347,0.162102 0.00496382,0.338132 0.00496382,0.52698l0 2.27232 0.688193 0 0 -1.73237c0.00103722,-0.190848 0.0316351,-0.357988 0.092979,-0.499345 0.0603067,-0.141432 0.147285,-0.252192 0.259082,-0.330279 0.112686,-0.0791248 0.246191,-0.118687 0.401403,-0.11965 0.0385993,0 0.0741609,0.000963129 0.107796,0.0039266 0.0326723,0.00296347 0.0643074,0.00792729 0.0939421,0.0138542l0 -0.658558z"/>
  <path id="12345678910" class="fil4" d="M59.7939 14.171c-0.217519,0 -0.420221,0.0385252 -0.606179,0.114686 -0.186847,0.0761613 -0.349986,0.187884 -0.489418,0.334206 -0.140395,0.147359 -0.249228,0.328279 -0.327316,0.541871 -0.0780875,0.21463 -0.118687,0.459857 -0.11965,0.735682 0.000963129,0.264046 0.0395624,0.500383 0.114686,0.707974 0.0751982,0.207665 0.179957,0.382733 0.314499,0.527054 0.135431,0.144395 0.29368,0.255155 0.4746,0.330279 0.18092,0.0751241 0.377695,0.11276 0.591287,0.113723 0.148322,0 0.295681,-0.0207443 0.442002,-0.062307 0.146396,-0.0415627 0.283827,-0.105796 0.414294,-0.193811 0.130541,-0.086978 0.246265,-0.198775 0.347097,-0.334206 0.101869,-0.136468 0.180994,-0.298644 0.238337,-0.487492 0.0583064,-0.187884 0.0880152,-0.40444 0.0889783,-0.64863 -0.000963129,-0.251154 -0.0356358,-0.480601 -0.105796,-0.685303 -0.0691971,-0.205665 -0.170103,-0.382659 -0.299607,-0.529943 -0.130541,-0.148322 -0.285753,-0.262045 -0.46771,-0.342133 -0.181957,-0.0800879 -0.385622,-0.120687 -0.610105,-0.121651zm0.777171 1.69681c0,0.164102 -0.018744,0.318351 -0.0553429,0.461783 -0.037562,0.143358 -0.0909787,0.269898 -0.161213,0.379695 -0.0701603,0.10876 -0.154249,0.194774 -0.254118,0.256118 -0.0988319,0.062233 -0.211592,0.0939421 -0.336132,0.0949053 -0.126614,-0.000963129 -0.239301,-0.0326723 -0.33917,-0.0939421 -0.098906,-0.062307 -0.183958,-0.147359 -0.253155,-0.256118 -0.0702343,-0.10876 -0.122614,-0.234337 -0.159213,-0.375769 -0.0365989,-0.142321 -0.0553429,-0.293606 -0.0553429,-0.454819 0,-0.113723 0.00889042,-0.227447 0.0276344,-0.340133 0.0197812,-0.113723 0.04949,-0.22152 0.0890524,-0.323389 0.0405255,-0.101795 0.0929049,-0.192774 0.156175,-0.271899 0.0643074,-0.0791248 0.140469,-0.141432 0.229447,-0.186847 0.0899414,-0.0465265 0.192774,-0.0692712 0.310498,-0.0702343 0.114686,0.000963129 0.216556,0.024745 0.304497,0.0711975 0.0880152,0.0454893 0.163213,0.10876 0.226484,0.188847 0.062307,0.0800879 0.113723,0.170103 0.154249,0.271899 0.0395624,0.100906 0.0691971,0.207665 0.0880152,0.318425 0.018744,0.11076 0.0276344,0.22152 0.0276344,0.330279z"/>
  <path id="1234567891011" class="fil4" d="M62.8903 13.3404c0,-0.0781616 -0.0168177,-0.147359 -0.0494159,-0.207665 -0.0316351,-0.0603067 -0.0771244,-0.107796 -0.136468,-0.142395 -0.0593436,-0.0345986 -0.130541,-0.0523794 -0.211592,-0.0534166 -0.0800879,0.00103722 -0.149359,0.0188181 -0.209666,0.0534166 -0.0603067,0.0345986 -0.107796,0.0820882 -0.141358,0.142395 -0.0346726,0.0603067 -0.0514163,0.129504 -0.0524535,0.207665 0.00103722,0.0741609 0.0177808,0.140395 0.0504531,0.200701 0.0325982,0.0593436 0.0791248,0.106833 0.138394,0.142395 0.0593436,0.0356358 0.129578,0.0534166 0.208703,0.0543798 0.0830514,-0.000963129 0.155212,-0.018744 0.215519,-0.0543798 0.0603067,-0.0355617 0.105796,-0.0830514 0.138468,-0.142395 0.0325982,-0.0603067 0.0494159,-0.12654 0.0494159,-0.200701zm-0.0534166 0.901785l-0.688193 0 0 2.76077c0.00200035,0.238263 -0.00689008,0.440002 -0.0237078,0.608105 -0.0178549,0.16714 -0.0534166,0.303534 -0.106833,0.410367 -0.0533425,0.107796 -0.133505,0.188847 -0.240264,0.246191 -0.105796,0.0563801 -0.247228,0.0939421 -0.424221,0.11076l0.0711975 0.538908c0.114686,0 0.23241,-0.0118539 0.355024,-0.0365989 0.123577,-0.024745 0.241227,-0.0632702 0.355987,-0.11565 0.113649,-0.0534166 0.215519,-0.120687 0.303534,-0.203739 0.0949053,-0.0919418 0.171067,-0.199738 0.229373,-0.324352 0.0583804,-0.12454 0.101869,-0.270936 0.128541,-0.438001 0.0267454,-0.168103 0.0395624,-0.361914 0.0395624,-0.582397l0 -2.97437z"/>
  <path id="123456789101112" class="fil4" d="M66.0877 16.8942c-0.104833,0.0454893 -0.224483,0.0820142 -0.357025,0.11076 -0.132467,0.0276344 -0.288716,0.0424518 -0.467636,0.043489 -0.129578,0.000963129 -0.253155,-0.0177808 -0.369842,-0.055417 -0.116687,-0.0365248 -0.220482,-0.0958684 -0.312498,-0.175956 -0.0919418,-0.0800879 -0.164102,-0.184921 -0.218482,-0.314499 -0.0543798,-0.128541 -0.0850517,-0.285753 -0.0900155,-0.468673l2.07651 0c0.00592695,-0.0414886 0.0108908,-0.0860148 0.0138542,-0.134468 0.00296347,-0.0474897 0.0039266,-0.0998691 0.0039266,-0.156249 0,-0.162176 -0.0148174,-0.320352 -0.0454893,-0.473637 -0.0305979,-0.153286 -0.0780875,-0.295681 -0.142321,-0.428148 -0.0652705,-0.132467 -0.147359,-0.249154 -0.249228,-0.349023 -0.100832,-0.100906 -0.222483,-0.178994 -0.362877,-0.235374 -0.141432,-0.0563801 -0.303534,-0.0850517 -0.487492,-0.0860148 -0.231373,0.000963129 -0.439039,0.0474897 -0.619959,0.136468 -0.181957,0.0899414 -0.336206,0.214556 -0.462821,0.373768 -0.12654,0.159213 -0.222483,0.345097 -0.288716,0.555726 -0.0662336,0.211592 -0.0988319,0.439039 -0.0998691,0.684266 0,0.250117 0.0356358,0.476601 0.104833,0.679302 0.0691971,0.202702 0.170103,0.376732 0.303534,0.52209 0.132541,0.145358 0.295681,0.257081 0.487492,0.335169 0.192848,0.0781616 0.412367,0.117724 0.658558,0.118687 0.22352,-0.00200035 0.423258,-0.0207443 0.599214,-0.0583804 0.17603,-0.0365248 0.322352,-0.0830514 0.439039,-0.137431l-0.112686 -0.486454zm-1.80957 -1.35275c0.00889042,-0.0969056 0.0297088,-0.195737 0.062307,-0.297607 0.0316351,-0.101869 0.0780875,-0.195812 0.138468,-0.283753 0.0603067,-0.0880152 0.136394,-0.159213 0.227373,-0.212629 0.0909787,-0.0543798 0.199738,-0.0830514 0.325315,-0.0840145 0.131578,0.000963129 0.241301,0.0286716 0.330279,0.0820142 0.0889783,0.0534166 0.159213,0.123651 0.211592,0.209666 0.0514163,0.086978 0.0890524,0.181957 0.11076,0.283753 0.0217815,0.101869 0.0316351,0.202702 0.0297088,0.302571l-1.4358 0z"/>
  <path id="12345678910111213" class="fil4" d="M69.2434 16.8942c-0.0760872,0.0335613 -0.164102,0.0642333 -0.263971,0.0899414 -0.0998691,0.0257081 -0.217593,0.0395624 -0.353024,0.0405255 -0.143358,0 -0.274862,-0.0266713 -0.39555,-0.0780875 -0.11965,-0.0514163 -0.224409,-0.12654 -0.313461,-0.225446 -0.0889783,-0.0978687 -0.158175,-0.218556 -0.206628,-0.359914 -0.0494159,-0.141432 -0.0741609,-0.301608 -0.0751241,-0.481565 0,-0.161213 0.0217074,-0.312498 0.0652705,-0.451856 0.043489,-0.140469 0.107722,-0.264046 0.192774,-0.369842 0.0850517,-0.106833 0.188847,-0.189885 0.312498,-0.250191 0.123577,-0.0593436 0.265972,-0.0899414 0.426148,-0.0909787 0.092979,0 0.17603,0.00696416 0.250191,0.0208184 0.0731237,0.012817 0.138394,0.0296347 0.193811,0.0494159 0.056306,0.0197812 0.103796,0.0395624 0.143358,0.0603067l0.136468 -0.528017c-0.0484528,-0.024745 -0.10876,-0.0474897 -0.18292,-0.0702343 -0.0731978,-0.0227447 -0.156249,-0.0405255 -0.249228,-0.0553429 -0.0929049,-0.0148174 -0.191811,-0.0227447 -0.297607,-0.0227447 -0.263008,0.000963129 -0.499345,0.0454893 -0.707011,0.132467 -0.208629,0.0870521 -0.385622,0.208703 -0.531944,0.364878 -0.146396,0.157212 -0.258119,0.340207 -0.335243,0.551799 -0.0771244,0.210629 -0.11565,0.440002 -0.116687,0.689156 0.00103722,0.256118 0.037562,0.486528 0.11076,0.69123 0.0741609,0.204628 0.178994,0.379695 0.315462,0.525054 0.137431,0.145358 0.301534,0.256118 0.492381,0.334206 0.190848,0.0771244 0.405403,0.115724 0.64174,0.116687 0.126614,-0.000963129 0.244264,-0.00992764 0.353024,-0.0277085 0.107796,-0.0168177 0.203665,-0.0385252 0.28679,-0.0632702 0.0830514,-0.0257081 0.150248,-0.0504531 0.202702,-0.0751241l-0.0949794 -0.516163z"/>
  <path id="1234567891011121314" class="fil4" d="M70.1982 14.2422l-0.462747 0 0 0.516163 0.462747 0 0 1.69088c0,0.212555 0.0197812,0.389549 0.0593436,0.532981 0.0394883,0.142321 0.100832,0.257081 0.183884,0.345097 0.0721606,0.0800879 0.164176,0.142321 0.274862,0.184847 0.109797,0.0425259 0.234411,0.0643074 0.371842,0.0643074 0.11565,0 0.219519,-0.00696416 0.309461,-0.0207443 0.0900155,-0.0138542 0.16514,-0.0326723 0.224483,-0.0563801l-0.0237078 -0.528017c-0.0405996,0.0118539 -0.0840886,0.0217074 -0.131504,0.0296347 -0.0465265,0.00792729 -0.10387,0.0118539 -0.171067,0.0118539 -0.144395,0 -0.250191,-0.0494159 -0.316425,-0.148322 -0.0672709,-0.0988319 -0.0998691,-0.249154 -0.098906,-0.450893l0 -1.65525 0.777171 0 0 -0.516163 -0.777171 0 0 -0.80688 -0.682266 0.213592 0 0.593288z"/>
 </g>
</svg>
