<?xml version="1.0" encoding="UTF-8"?>
<!DOCTYPE svg PUBLIC "-//W3C//DTD SVG 1.1//EN" "http://www.w3.org/Graphics/SVG/1.1/DTD/svg11.dtd">
<!-- Creator: CorelDRAW -->
<svg xmlns="http://www.w3.org/2000/svg" xml:space="preserve" width="54.2587mm" height="53.607mm" style="shape-rendering:geometricPrecision; text-rendering:geometricPrecision; image-rendering:optimizeQuality; fill-rule:evenodd; clip-rule:evenodd"
viewBox="0 0 15.2139 15.0312"
 xmlns:xlink="http://www.w3.org/1999/xlink">
 <defs>
  <style type="text/css">
   <![CDATA[
    .fil2 {fill:white}
    .fil1 {fill:#0B8CB4}
    .fil0 {fill:#E58933}
    .fil4 {fill:#EF9B35;fill-rule:nonzero}
    .fil3 {fill:#0B8CB4;fill-rule:nonzero}
   ]]>
  </style>
 </defs>
 <g id="Слой_x0020_1">
  <metadata id="CorelCorpID_0Corel-Layer"/>
  <path class="fil0" d="M11.7833 4.17638c0,2.30668 -1.86985,4.17641 -4.17638,4.17641 -2.30656,0 -4.17661,-1.86973 -4.17661,-4.17641 0,-2.30676 1.87004,-4.17638 4.17661,-4.17638 2.30656,0 4.17638,1.86965 4.17638,4.17638z"/>
  <path class="fil1" d="M15.2139 4.1763c0,0 -0.624974,-1.11272 -1.66883,-2.38499 0.29635,0.737329 0.461139,1.54173 0.461139,2.38507 0,0.843374 -0.164592,1.64769 -0.461139,2.38482 1.04389,-1.27218 1.66883,-2.38491 1.66883,-2.38491z"/>
  <path class="fil1" d="M1.2075 4.17638c0,-0.843066 0.164592,-1.64735 0.460971,-2.38449 -1.04389,1.27196 -1.66847,2.3844 -1.66847,2.3844 0,0 0.624581,1.11233 1.66847,2.38432 -0.296378,-0.737048 -0.460971,-1.54114 -0.460971,-2.38423z"/>
  <path class="fil2" d="M10.7467 4.17638c0,1.73405 -1.40571,3.13973 -3.13976,3.13973 -1.73428,0 -3.13998,-1.40568 -3.13998,-3.13973 0,-1.73408 1.40571,-3.14001 3.13998,-3.14001 1.73405,0 3.13976,1.40596 3.13976,3.14001z"/>
  <path class="fil1" d="M8.65817 4.3952c-0.527649,0 -0.955168,-0.427631 -0.955168,-0.955056 0,-0.365215 0.204969,-0.682231 0.50617,-0.842954 -0.187445,-0.0716411 -0.39003,-0.112298 -0.602206,-0.112298 -0.934278,0 -1.69168,0.757237 -1.69168,1.69149 0,0.934278 0.757405,1.69152 1.69168,1.69152 0.934082,0 1.69149,-0.757237 1.69149,-1.69152 0,-0.00919698 -0.00140198,-0.018394 -0.00140198,-0.0276751 -0.169443,0.152704 -0.392806,0.246496 -0.638882,0.246496z"/>
  <path class="fil3" d="M1.30039 10.8337l0 0.267498 0.745544 0 0 0.00569203c-0.0336755,0.0407695 -0.0668744,0.0820438 -0.0995966,0.122813 -0.0322455,0.0412742 -0.0654444,0.0834738 -0.0995966,0.12758l-0.606103 0.847973 0 0.196333 1.21218 0 0 -0.267469 -0.8081 0 0 -0.00569203c0.0341242,-0.0398442 0.0677997,-0.0811185 0.100522,-0.123318 0.0331989,-0.0426762 0.065921,-0.0858291 0.0986432,-0.129935l0.594719 -0.833729 0 -0.207745 -1.13821 0z"/>
  <path id="1" class="fil3" d="M3.41441 10.7996c-0.104335,0 -0.201548,0.0184781 -0.290714,0.0550136 -0.0896425,0.0365075 -0.167873,0.0900911 -0.234747,0.160274 -0.067351,0.0706878 -0.119505,0.15747 -0.156994,0.259899 -0.0374609,0.102905 -0.0568923,0.220531 -0.057369,0.35285 0.000476673,0.126627 0.0189547,0.239963 0.0550136,0.339559 0.0360308,0.0995966 0.0863058,0.183547 0.150797,0.252777 0.0649957,0.0692297 0.140871,0.122365 0.227653,0.158396 0.0867825,0.0360589 0.181164,0.0540603 0.283592,0.054537 0.0711364,0 0.141796,-0.00995405 0.212007,-0.0298621 0.070183,-0.0199361 0.136104,-0.0507516 0.198688,-0.0929512 0.0626124,-0.0417509 0.118103,-0.0953345 0.166471,-0.160302 0.0488449,-0.0654444 0.0867825,-0.143226 0.114289,-0.233822 0.0279835,-0.0900911 0.0422276,-0.19395 0.0427043,-0.311099 -0.000476673,-0.120458 -0.0170761,-0.230485 -0.0507516,-0.328652 -0.0331989,-0.0986432 -0.0815671,-0.183547 -0.143703,-0.254207 -0.0626124,-0.0711364 -0.137057,-0.125673 -0.224317,-0.164088 -0.0872591,-0.0384142 -0.184949,-0.0578456 -0.292621,-0.0583223zm0.372758 0.813792c0,0.0787351 -0.0090007,0.152732 -0.0265535,0.221485 -0.0180294,0.0687811 -0.0436296,0.129487 -0.0773051,0.182117 -0.0336755,0.0521816 -0.0739684,0.0934278 -0.121888,0.122841 -0.0474149,0.0298621 -0.101475,0.0450316 -0.161228,0.0455082 -0.0607057,-0.000476673 -0.114766,-0.0156461 -0.162686,-0.0450316 -0.0474149,-0.0298902 -0.0882125,-0.0706878 -0.121411,-0.122841 -0.0336475,-0.0521816 -0.058799,-0.112411 -0.0763518,-0.18021 -0.0175247,-0.0683044 -0.0265535,-0.140871 -0.0265535,-0.218176 0,-0.054537 0.00426201,-0.109074 0.0132908,-0.163134 0.00947737,-0.054537 0.0236934,-0.106242 0.0426762,-0.155087 0.0194314,-0.0488449 0.0445829,-0.0924745 0.0749217,-0.130412 0.0308435,-0.0379375 0.067351,-0.0678277 0.110027,-0.0896425 0.0431529,-0.0222915 0.0924745,-0.0331989 0.148918,-0.0336475 0.0550136,0.000448633 0.103859,0.0118327 0.146086,0.0341242 0.0421996,0.0218148 0.0782304,0.0521816 0.108597,0.0905959 0.0298621,0.0384142 0.054537,0.0815671 0.0739684,0.130412 0.0189828,0.0483683 0.0331989,0.0995966 0.0422276,0.152704 0.0090007,0.053135 0.0132627,0.106242 0.0132627,0.158396z"/>
  <path id="12" class="fil3" d="M5.14425 10.7996c-0.104335,0 -0.201548,0.0184781 -0.290714,0.0550136 -0.0896425,0.0365075 -0.167873,0.0900911 -0.234747,0.160274 -0.067351,0.0706878 -0.119505,0.15747 -0.156994,0.259899 -0.0374609,0.102905 -0.0568923,0.220531 -0.057369,0.35285 0.000476673,0.126627 0.0189547,0.239963 0.0550136,0.339559 0.0360308,0.0995966 0.0863058,0.183547 0.150797,0.252777 0.0649957,0.0692297 0.140871,0.122365 0.227653,0.158396 0.0867825,0.0360589 0.181164,0.0540603 0.283592,0.054537 0.0711364,0 0.141796,-0.00995405 0.212007,-0.0298621 0.070183,-0.0199361 0.136104,-0.0507516 0.198688,-0.0929512 0.0626124,-0.0417509 0.118103,-0.0953345 0.166471,-0.160302 0.0488449,-0.0654444 0.0867825,-0.143226 0.114289,-0.233822 0.0279835,-0.0900911 0.0422276,-0.19395 0.0427043,-0.311099 -0.000476673,-0.120458 -0.0170761,-0.230485 -0.0507516,-0.328652 -0.0331989,-0.0986432 -0.0815671,-0.183547 -0.143703,-0.254207 -0.0626124,-0.0711364 -0.137057,-0.125673 -0.224317,-0.164088 -0.0872591,-0.0384142 -0.184949,-0.0578456 -0.292621,-0.0583223zm0.372758 0.813792c0,0.0787351 -0.0090007,0.152732 -0.0265535,0.221485 -0.0180294,0.0687811 -0.0436296,0.129487 -0.0773051,0.182117 -0.0336755,0.0521816 -0.0739684,0.0934278 -0.121888,0.122841 -0.0474149,0.0298621 -0.101475,0.0450316 -0.161228,0.0455082 -0.0607057,-0.000476673 -0.114766,-0.0156461 -0.162686,-0.0450316 -0.0474149,-0.0298902 -0.0882125,-0.0706878 -0.121411,-0.122841 -0.0336475,-0.0521816 -0.058799,-0.112411 -0.0763518,-0.18021 -0.0175247,-0.0683044 -0.0265535,-0.140871 -0.0265535,-0.218176 0,-0.054537 0.00426201,-0.109074 0.0132908,-0.163134 0.00947737,-0.054537 0.0236934,-0.106242 0.0426762,-0.155087 0.0194314,-0.0488449 0.0445829,-0.0924745 0.0749217,-0.130412 0.0308435,-0.0379375 0.067351,-0.0678277 0.110027,-0.0896425 0.0431529,-0.0222915 0.0924745,-0.0331989 0.148918,-0.0336475 0.0550136,0.000448633 0.103859,0.0118327 0.146086,0.0341242 0.0421996,0.0218148 0.0782304,0.0521816 0.108597,0.0905959 0.0298621,0.0384142 0.054537,0.0815671 0.0739684,0.130412 0.0189828,0.0483683 0.0331989,0.0995966 0.0422276,0.152704 0.0090007,0.053135 0.0132627,0.106242 0.0132627,0.158396z"/>
  <path id="123" class="fil3" d="M8.38507 11.4541c-0.000476673,-0.12329 -0.0151694,-0.227149 -0.0436296,-0.311099 -0.0284602,-0.0844271 -0.0663977,-0.151273 -0.113336,-0.202025 -0.047443,-0.0502749 -0.100073,-0.0863058 -0.15747,-0.108597 -0.057369,-0.0222915 -0.115719,-0.0331989 -0.174995,-0.0327222 -0.0749217,0.000476673 -0.142273,0.0123094 -0.202025,0.0360308 -0.0597523,0.0237215 -0.112887,0.0569203 -0.159349,0.0995966 -0.0464896,0.0431529 -0.0872591,0.0934278 -0.122365,0.15175l-0.00569203 0c-0.0218148,-0.0592757 -0.0526303,-0.110027 -0.0924745,-0.15318 -0.0398442,-0.0426762 -0.0867825,-0.0758751 -0.141319,-0.0991199 -0.054537,-0.0232448 -0.114766,-0.0346008 -0.18164,-0.0350775 -0.0597523,0.000476673 -0.113336,0.00804736 -0.161732,0.0227401 -0.0478916,0.0151974 -0.0905678,0.0351055 -0.128029,0.060257 -0.0374889,0.0256001 -0.0702111,0.0535836 -0.0981665,0.0848758 -0.0275068,0.0312922 -0.0512283,0.0635657 -0.0702111,0.0967365l-0.00852403 0 -0.0170761 -0.230485 -0.284546 0c0.00187865,0.0441062 0.00378534,0.0891658 0.00569203,0.134702 0.00140198,0.0455363 0.002832,0.0929512 0.00426201,0.143226 0.000953345,0.0502749 0.00143002,0.104812 0.00143002,0.163134l0 1.12683 0.32439 0 0 -0.950401c0.000476673,-0.0621357 0.00995405,-0.116673 0.0284321,-0.164088 0.0185061,-0.0474149 0.0431809,-0.0872591 0.0739964,-0.119505 0.0308155,-0.0322455 0.064491,-0.0564437 0.101475,-0.0730431 0.0370122,-0.0165994 0.0744731,-0.0246748 0.111934,-0.0246748 0.0635657,0.000476673 0.115243,0.0180294 0.155564,0.051705 0.0402929,0.0336755 0.070183,0.0796885 0.0891658,0.137534 0.0189547,0.0578456 0.0284321,0.123767 0.0284321,0.197763l0 0.944709 0.32439 0 0 -0.967477c0.000476673,-0.0569203 0.00902874,-0.108121 0.0265815,-0.15318 0.0170481,-0.0445829 0.0402929,-0.0829971 0.0692297,-0.114289 0.0289368,-0.0312922 0.061659,-0.0554903 0.0976899,-0.0720897 0.0360589,-0.0161228 0.0730431,-0.0246748 0.110981,-0.0246748 0.0663977,0.000476673 0.120458,0.0185061 0.162181,0.054537 0.0422276,0.0360589 0.0730431,0.0863338 0.0929512,0.151778 0.0199361,0.0649677 0.0298902,0.141319 0.0294135,0.229055l0 0.896341 0.32439 0 0 -0.947569z"/>
  <path id="1234" class="fil3" d="M9.94704 11.437c0.000476673,-0.0839505 -0.00855207,-0.164116 -0.0270301,-0.239991 -0.0189828,-0.0763518 -0.0502749,-0.144151 -0.0943812,-0.203455 -0.0445829,-0.0597523 -0.104812,-0.106691 -0.181164,-0.141319 -0.0763518,-0.0341522 -0.171686,-0.0521536 -0.286452,-0.0526303 -0.0706597,0.000476673 -0.137057,0.00616871 -0.200146,0.0180014 -0.063061,0.0118607 -0.120458,0.0275068 -0.172612,0.047443 -0.051705,0.0194314 -0.0962879,0.0412462 -0.133749,0.0654444l0.0683044 0.219101c0.0336755,-0.0218148 0.0706597,-0.0412742 0.111906,-0.057397 0.0412742,-0.0161228 0.0849038,-0.0284321 0.130917,-0.0374609 0.0455082,-0.00852403 0.0915212,-0.0132627 0.138459,-0.0132627 0.0626124,0.000476673 0.114317,0.0090007 0.154134,0.0251235 0.0398442,0.0161228 0.0711364,0.0379375 0.0934278,0.064491 0.0222915,0.0265535 0.0384142,0.0554903 0.0479196,0.0867825 0.00995405,0.0313202 0.0156461,0.0621357 0.0180014,0.0925025 0.00190669,0.0303388 0.00286004,0.057369 0.00238336,0.0810904 -0.134702,0 -0.256113,0.0123374 -0.363757,0.0365075 -0.107644,0.0241981 -0.19967,0.060229 -0.276022,0.109074 -0.0763518,0.0483963 -0.134674,0.109102 -0.175472,0.182117 -0.0402929,0.0730431 -0.0607057,0.157919 -0.0611823,0.255637 0,0.0611823 0.0104307,0.119028 0.0308435,0.173565 0.0203848,0.0550136 0.0502749,0.103382 0.0896145,0.146086 0.0393676,0.0426762 0.0877358,0.0763518 0.144656,0.100999 0.057397,0.0241981 0.122365,0.0369842 0.195856,0.0374609 0.0654724,-0.000476673 0.12615,-0.00995405 0.181164,-0.0279835 0.0554903,-0.0184781 0.104812,-0.0436296 0.147993,-0.0758751 0.0431529,-0.0317688 0.0796604,-0.0682764 0.109074,-0.109551l0.00852403 0 0.0227681 0.182117 0.29879 0c-0.00950541,-0.0521816 -0.0161228,-0.110027 -0.0189828,-0.174518 -0.002832,-0.064491 -0.00426201,-0.130412 -0.00378534,-0.19824l0 -0.591859zm-0.321558 0.435342c-0.000476673,0.0611823 -0.0156461,0.115719 -0.0450596,0.163639 -0.0293855,0.0478916 -0.0682764,0.0853525 -0.117598,0.112859 -0.0493216,0.0275068 -0.103859,0.0417229 -0.164564,0.0421996 -0.0412742,0 -0.0792118,-0.00852403 -0.114289,-0.0265535 -0.0346289,-0.0175528 -0.0626124,-0.0445829 -0.0834738,-0.0815671 -0.0213381,-0.0369842 -0.0322455,-0.0844271 -0.0327222,-0.142273 0.000476673,-0.0554903 0.0113841,-0.102429 0.0331989,-0.141319 0.0218148,-0.0384142 0.0512003,-0.0697344 0.0886892,-0.0943812 0.0374609,-0.0246748 0.0796604,-0.0431529 0.127552,-0.0569203 0.0479196,-0.0132627 0.0981946,-0.0222915 0.150825,-0.0275068 0.0526303,-0.00521536 0.105289,-0.00757068 0.157442,-0.00712205l0 0.258945z"/>
  <path id="12345" class="fil3" d="M10.4789 10.8337l-0.221961 0 0 0.247561 0.221961 0 0 0.810988c0,0.101952 0.00947737,0.186856 0.0284602,0.255609 0.0189547,0.0683044 0.0483683,0.123318 0.0882125,0.165518 0.0346008,0.0384142 0.0787071,0.0683044 0.131842,0.0886892 0.0526303,0.0203848 0.112383,0.0308155 0.178304,0.0308155 0.0554903,0 0.105289,-0.00330867 0.148441,-0.00995405 0.0431529,-0.00664538 0.0792118,-0.0156461 0.107644,-0.0270301l-0.011356 -0.253253c-0.0194595,0.00569203 -0.0403209,0.0104307 -0.063089,0.0142441 -0.0222915,0.00378534 -0.0497983,0.00569203 -0.0820438,0.00569203 -0.0692297,0 -0.119981,-0.0237215 -0.15175,-0.0711644 -0.0322735,-0.0474149 -0.0479196,-0.119505 -0.047443,-0.216241l0 -0.793912 0.372758 0 0 -0.247561 -0.372758 0 0 -0.386974 -0.327222 0.102429 0 0.284546z"/>
  <path id="123456" class="fil3" d="M12.1547 10.7996c-0.104335,0 -0.201548,0.0184781 -0.290714,0.0550136 -0.0896425,0.0365075 -0.167873,0.0900911 -0.234747,0.160274 -0.067351,0.0706878 -0.119505,0.15747 -0.156994,0.259899 -0.0374609,0.102905 -0.0568923,0.220531 -0.057369,0.35285 0.000476673,0.126627 0.0189547,0.239963 0.0550136,0.339559 0.0360308,0.0995966 0.0863058,0.183547 0.150797,0.252777 0.0649957,0.0692297 0.140871,0.122365 0.227653,0.158396 0.0867825,0.0360589 0.181164,0.0540603 0.283592,0.054537 0.0711364,0 0.141796,-0.00995405 0.212007,-0.0298621 0.070183,-0.0199361 0.136104,-0.0507516 0.198688,-0.0929512 0.0626124,-0.0417509 0.118103,-0.0953345 0.166471,-0.160302 0.0488449,-0.0654444 0.0867825,-0.143226 0.114289,-0.233822 0.0279835,-0.0900911 0.0422276,-0.19395 0.0427043,-0.311099 -0.000476673,-0.120458 -0.0170761,-0.230485 -0.0507516,-0.328652 -0.0331989,-0.0986432 -0.0815671,-0.183547 -0.143703,-0.254207 -0.0626124,-0.0711364 -0.137057,-0.125673 -0.224317,-0.164088 -0.0872591,-0.0384142 -0.184949,-0.0578456 -0.292621,-0.0583223zm0.372758 0.813792c0,0.0787351 -0.0090007,0.152732 -0.0265535,0.221485 -0.0180294,0.0687811 -0.0436296,0.129487 -0.0773051,0.182117 -0.0336755,0.0521816 -0.0739684,0.0934278 -0.121888,0.122841 -0.0474149,0.0298621 -0.101475,0.0450316 -0.161228,0.0455082 -0.0607057,-0.000476673 -0.114766,-0.0156461 -0.162686,-0.0450316 -0.0474149,-0.0298902 -0.0882125,-0.0706878 -0.121411,-0.122841 -0.0336475,-0.0521816 -0.058799,-0.112411 -0.0763518,-0.18021 -0.0175247,-0.0683044 -0.0265535,-0.140871 -0.0265535,-0.218176 0,-0.054537 0.00426201,-0.109074 0.0132908,-0.163134 0.00947737,-0.054537 0.0236934,-0.106242 0.0426762,-0.155087 0.0194314,-0.0488449 0.0445829,-0.0924745 0.0749217,-0.130412 0.0308435,-0.0379375 0.067351,-0.0678277 0.110027,-0.0896425 0.0431529,-0.0222915 0.0924745,-0.0331989 0.148918,-0.0336475 0.0550136,0.000448633 0.103859,0.0118327 0.146086,0.0341242 0.0421996,0.0218148 0.0782304,0.0521816 0.108597,0.0905959 0.0298621,0.0384142 0.054537,0.0815671 0.0739684,0.130412 0.0189828,0.0483683 0.0331989,0.0995966 0.0422276,0.152704 0.0090007,0.053135 0.0132627,0.106242 0.0132627,0.158396z"/>
  <path id="1234567" class="fil3" d="M14.0325 10.8081c-0.0137394,-0.002832 -0.0275068,-0.00521536 -0.0402929,-0.00664538 -0.0128141,-0.00140198 -0.0270582,-0.00187865 -0.0422276,-0.00187865 -0.057369,0.000476673 -0.112859,0.0132627 -0.165518,0.0388909 -0.0531069,0.0260768 -0.100522,0.0625843 -0.142273,0.110476 -0.0417229,0.0479196 -0.0749217,0.105289 -0.0991199,0.172163l-0.0113841 0 -0.0113841 -0.287406 -0.287378 0c0.00426201,0.0720897 0.00709401,0.14704 0.0090007,0.22527 0.00143002,0.0777818 0.00238336,0.162209 0.00238336,0.252777l0 1.08984 0.330082 0 0 -0.830897c0.000448633,-0.0915212 0.0151694,-0.171658 0.0445549,-0.239486 0.0289368,-0.0678277 0.0706878,-0.120935 0.124271,-0.158396 0.0540603,-0.0379375 0.118075,-0.0569203 0.192548,-0.057397 0.0184781,0 0.0355542,0.000476673 0.0516769,0.00190669 0.0156741,0.00143002 0.0308435,0.00378534 0.0450596,0.00664538l0 -0.315866z"/>
  <path id="12345678" class="fil4" d="M5.04709 13.8125l-0.0104027 -0.145413 -0.176565 0c0.00171041,0.0421154 0.00344887,0.088577 0.00490692,0.139076 0.00114962,0.0507797 0.00201885,0.107027 0.00201885,0.169051l0 1.03177 0.200791 0 0 -0.498572 0.00347691 0c0.0158704,0.026245 0.0360589,0.0490412 0.0614627,0.0686689 0.0250954,0.0196277 0.0539481,0.0351897 0.0865582,0.0461531 0.0328904,0.0109635 0.0680801,0.0164592 0.106466,0.0167396 0.040377,0 0.0801932,-0.00633694 0.11914,-0.0193193 0.038947,-0.0127019 0.0753143,-0.0323296 0.109635,-0.0585747 0.0340681,-0.0262731 0.0643508,-0.0594439 0.0903155,-0.0998209 0.026245,-0.0401246 0.046742,-0.0877358 0.0614627,-0.142553 0.0150012,-0.0548174 0.0224877,-0.117121 0.0227962,-0.18694 -0.000308435,-0.0741647 -0.00981385,-0.141095 -0.0285723,-0.200819 -0.0187585,-0.0597243 -0.0450035,-0.110784 -0.0787632,-0.153489 -0.0337596,-0.0424239 -0.0735758,-0.0750339 -0.119168,-0.0978301 -0.0455923,-0.0227681 -0.0951943,-0.03404 -0.149171,-0.0343204 -0.0669305,0.000280396 -0.125786,0.0144123 -0.176846,0.0427043 -0.0510881,0.0285723 -0.0929231,0.0695381 -0.126094,0.123486l-0.00344887 0zm0.0207493 0.247561c0.000308435,-0.0352177 0.00605655,-0.0681081 0.0178892,-0.0986993 0.0115523,-0.0305631 0.0277031,-0.0571166 0.0482,-0.0801932 0.0204689,-0.0230766 0.0438539,-0.0412742 0.0704074,-0.0542566 0.0268058,-0.0129823 0.0550978,-0.0193193 0.0851001,-0.0195997 0.0386666,0.000280396 0.0724262,0.00894462 0.10184,0.026245 0.0291612,0.0173004 0.0539762,0.0412462 0.0735758,0.0718374 0.0199081,0.0303108 0.0349093,0.0655004 0.0450035,0.105597 0.0101223,0.0401246 0.0150292,0.0828009 0.0150292,0.128702 0,0.049602 -0.00521536,0.0951943 -0.01559,0.136469 -0.0104027,0.0415266 -0.0259646,0.0776135 -0.0461812,0.108177 -0.0204689,0.0303108 -0.0455643,0.0539762 -0.0755666,0.0709962 -0.0297219,0.0167116 -0.0643508,0.0250954 -0.103298,0.0253758 -0.0250954,0 -0.0502189,-0.00459849 -0.0753143,-0.0141319 -0.0253758,-0.00922502 -0.0487608,-0.0239458 -0.0698185,-0.0435735 -0.0213381,-0.0199081 -0.0383862,-0.0450035 -0.0513685,-0.0758751 -0.0129823,-0.0308716 -0.0195997,-0.0677997 -0.0199081,-0.110504l0 -0.176565z"/>
  <path id="123456789" class="fil4" d="M6.43702 13.6515c-0.00835579,-0.00173845 -0.0167116,-0.00316847 -0.0245066,-0.0040377 -0.007795,-0.000869227 -0.0164592,-0.00114962 -0.0256842,-0.00114962 -0.0349093,0.000280396 -0.0686689,0.0080754 -0.10069,0.0236654 -0.0323296,0.0158704 -0.0611823,0.0380777 -0.0865582,0.0672109 -0.0254039,0.0291612 -0.0455923,0.0640704 -0.0603131,0.104728l-0.00692577 0 -0.00692577 -0.174827 -0.174827 0c0.00257964,0.0438539 0.00431809,0.0894462 0.00546772,0.137029 0.000869227,0.0473308 0.00145806,0.0986993 0.00145806,0.153797l0 0.663024 0.200791 0 0 -0.505497c0.000308435,-0.0556866 0.00925306,-0.104447 0.0271423,-0.145694 0.0175808,-0.0412742 0.0429847,-0.0735758 0.0755947,-0.096372 0.0328904,-0.0230766 0.0718374,-0.0346289 0.117121,-0.0349093 0.0112719,0 0.0216465,0.000280396 0.0314604,0.00114962 0.00950541,0.000869227 0.0187585,0.00229924 0.0273947,0.0040377l0 -0.192155z"/>
  <path id="12345678910" class="fil4" d="M7.01334 13.6463c-0.0634816,0 -0.122617,0.0112439 -0.176874,0.0334792 -0.0545089,0.0222073 -0.10212,0.0548174 -0.142806,0.0975216 -0.0409658,0.0429847 -0.0727066,0.0957832 -0.0955028,0.158087 -0.0227962,0.0626124 -0.0346289,0.134169 -0.0349093,0.214671 0.000280396,0.0770247 0.0115243,0.146002 0.0334512,0.206596 0.0219269,0.0605655 0.0525181,0.111654 0.0917735,0.153769 0.0395078,0.0421154 0.0856889,0.0744451 0.138487,0.096372 0.0527985,0.0219269 0.110196,0.0328904 0.172527,0.0331708 0.0432931,0 0.0862778,-0.00605655 0.128982,-0.0181696 0.0427043,-0.0121131 0.0828009,-0.0308716 0.120879,-0.0565558 0.0380777,-0.0253758 0.0718374,-0.0579858 0.101279,-0.0975216 0.0297219,-0.0398162 0.0527985,-0.0871189 0.0695381,-0.142245 0.01702,-0.0548174 0.0256562,-0.117991 0.0259646,-0.189267 -0.000308435,-0.0732954 -0.0104027,-0.140226 -0.0308716,-0.19995 -0.0202165,-0.0600047 -0.04963,-0.111654 -0.0874274,-0.154638 -0.0380777,-0.0432931 -0.0833897,-0.0764639 -0.136469,-0.0998209 -0.0531069,-0.023385 -0.112523,-0.0352177 -0.178023,-0.0354981zm0.226784 0.495095c0,0.0478916 -0.00549576,0.0929231 -0.0161508,0.134758 -0.0109635,0.041835 -0.0265535,0.0787632 -0.0470504,0.110784 -0.0204689,0.0317408 -0.0450035,0.0568362 -0.0741366,0.0747255 -0.0288527,0.0181696 -0.0617431,0.0274227 -0.0981105,0.0277031 -0.0369281,-0.000280396 -0.0698185,-0.00953345 -0.0989516,-0.0274227 -0.0288527,-0.0181696 -0.0536677,-0.0429847 -0.0738562,-0.0747255 -0.0204969,-0.0317408 -0.0357785,-0.0683605 -0.0464616,-0.109635 -0.0106831,-0.0415546 -0.0161508,-0.0856889 -0.0161508,-0.132711 0,-0.0331989 0.00257964,-0.0663697 0.0080754,-0.0992601 0.00577615,-0.0331708 0.0144123,-0.0646312 0.0259646,-0.0943532 0.0118327,-0.0297219 0.0271143,-0.0562474 0.0455923,-0.0793239 0.0187585,-0.0231046 0.0409658,-0.0412742 0.0669305,-0.054537 0.026245,-0.0135712 0.0562754,-0.0201885 0.0905959,-0.0204969 0.0334792,0.000308435 0.0631732,0.00720617 0.0888574,0.0207773 0.0256842,0.0132627 0.0476112,0.0317408 0.0660893,0.0550978 0.0181696,0.023385 0.0331708,0.04963 0.0450035,0.079352 0.0115243,0.0294415 0.0201885,0.0605935 0.0256842,0.0928951 0.00546772,0.0323296 0.0080754,0.0646312 0.0080754,0.096372z"/>
  <path id="1234567891011" class="fil4" d="M7.91683 13.4039c0,-0.0227681 -0.00490692,-0.0429847 -0.0144123,-0.0605655 -0.00922502,-0.0176089 -0.0225158,-0.0314604 -0.0398162,-0.0415546 -0.0173004,-0.0100942 -0.0380777,-0.0152816 -0.0617431,-0.01559 -0.023385,0.000308435 -0.0435735,0.00549576 -0.0611823,0.01559 -0.0175808,0.0100942 -0.0314324,0.0239458 -0.0412462,0.0415546 -0.0100942,0.0175808 -0.0150012,0.0377973 -0.0152816,0.0605655 0.000280396,0.0216465 0.00518732,0.0409939 0.0146927,0.0585747 0.00953345,0.0173285 0.0231046,0.03118 0.040405,0.0415546 0.0173004,0.0103746 0.0377973,0.01559 0.0608739,0.0158704 0.0242542,-0.000280396 0.0453119,-0.00549576 0.0628928,-0.0158704 0.0176089,-0.0103746 0.0308716,-0.0242262 0.040405,-0.0415546 0.00950541,-0.0175808 0.0144123,-0.0369281 0.0144123,-0.0585747zm-0.015562 0.263151l-0.200819 0 0 0.805549c0.000588831,0.0695381 -0.00201885,0.128393 -0.00692577,0.177434 -0.00518732,0.0487608 -0.01559,0.088577 -0.031152,0.119757 -0.01559,0.0314324 -0.038947,0.0550978 -0.070127,0.0718374 -0.0308716,0.0164312 -0.0721178,0.0273947 -0.123767,0.0323016l0.0207773 0.157246c0.0334512,0 0.0677997,-0.00344887 0.103578,-0.0106831 0.0360589,-0.00720617 0.0704074,-0.01845 0.103859,-0.0337316 0.0331989,-0.01559 0.0628928,-0.0352177 0.088577,-0.0594439 0.0277031,-0.0268339 0.0499104,-0.0582943 0.0669305,-0.0946336 0.0170481,-0.0363673 0.0297219,-0.0790716 0.0375169,-0.127832 0.007795,-0.0490412 0.0115523,-0.105597 0.0115523,-0.16992l0 -0.867881z"/>
  <path id="123456789101112" class="fil4" d="M8.84977 14.4409c-0.0305631,0.0132627 -0.0654724,0.0239458 -0.104139,0.0323296 -0.0386666,0.0080754 -0.0842589,0.0123935 -0.136469,0.0126739 -0.0377973,0.000308435 -0.0738562,-0.00518732 -0.107924,-0.0161508 -0.03404,-0.0106831 -0.0643228,-0.0279835 -0.0911566,-0.0513405 -0.0268339,-0.023385 -0.0478916,-0.0539762 -0.063762,-0.0917735 -0.0158704,-0.0374889 -0.024815,-0.0833616 -0.0262731,-0.136749l0.605907 0c0.00173845,-0.0121131 0.00316847,-0.0250954 0.0040377,-0.0392274 0.000869227,-0.0138515 0.00114962,-0.0291612 0.00114962,-0.0455923 0,-0.0473308 -0.00431809,-0.0934839 -0.0132627,-0.138207 -0.00894462,-0.0447231 -0.0227962,-0.0862778 -0.0415546,-0.124944 -0.0190389,-0.0386385 -0.0429847,-0.0727066 -0.0727066,-0.10184 -0.0294135,-0.0294135 -0.0649116,-0.0522097 -0.105877,-0.0686689 -0.0412742,-0.0164312 -0.088577,-0.024815 -0.142245,-0.0250954 -0.0675193,0.000280396 -0.128113,0.0138515 -0.180911,0.0398162 -0.0530789,0.026245 -0.0980824,0.0626124 -0.135039,0.109046 -0.0369281,0.0464616 -0.0649116,0.100718 -0.0842309,0.162153 -0.0193473,0.0617431 -0.0288527,0.128113 -0.0291331,0.19967 0,0.072987 0.0103746,0.139076 0.0305631,0.198212 0.0202165,0.0591355 0.04963,0.109915 0.088577,0.152339 0.0386666,0.0424239 0.0862778,0.0750059 0.142245,0.097802 0.0562754,0.0227962 0.120318,0.0343485 0.192155,0.0346289 0.06522,-0.000560791 0.123486,-0.00605655 0.174855,-0.01702 0.0513405,-0.0106831 0.0940447,-0.0242262 0.128113,-0.0400966l-0.0329185 -0.141964zm-0.527985 -0.394685c0.00260768,-0.0282919 0.00866423,-0.0571446 0.0181696,-0.0868666 0.00925306,-0.0296939 0.0227962,-0.0571166 0.040405,-0.0828009 0.0176089,-0.0256842 0.0398162,-0.0464335 0.0663697,-0.0620235 0.0265254,-0.0158704 0.0582662,-0.0242262 0.0949139,-0.0245346 0.0383581,0.000308435 0.0704074,0.00838383 0.096372,0.0239458 0.0259646,0.01559 0.0464335,0.0360869 0.0617431,0.0611823 0.0150012,0.0253758 0.0259646,0.0530789 0.0323016,0.0828009 0.00636498,0.0297219 0.00922502,0.0591355 0.00866423,0.0882966l-0.418939 0z"/>
  <path id="12345678910111213" class="fil4" d="M9.77058 14.4409c-0.0222073,0.00981385 -0.0478916,0.0187585 -0.0770247,0.0262731 -0.0291612,0.00748657 -0.0634816,0.0115243 -0.103017,0.0118047 -0.041835,0 -0.0801932,-0.00776696 -0.115411,-0.0227681 -0.0349093,-0.0150292 -0.0655004,-0.0369562 -0.0914651,-0.0658089 -0.0259646,-0.0285443 -0.0461531,-0.063762 -0.0602851,-0.105008 -0.0144404,-0.0412742 -0.0216465,-0.0879882 -0.0219269,-0.140506 0,-0.0470224 0.00633694,-0.0911847 0.0190389,-0.13187 0.0127019,-0.0409658 0.0314324,-0.0770247 0.0562474,-0.107896 0.024815,-0.031152 0.0551258,-0.0554062 0.0911847,-0.072987 0.0360589,-0.0173285 0.0776135,-0.0262731 0.124355,-0.0265535 0.0271143,0 0.0513685,0.00201885 0.072987,0.00605655 0.0213662,0.0037573 0.040405,0.00866423 0.0565558,0.0144404 0.0164592,0.00574811 0.0302827,0.0115243 0.041835,0.0175808l0.0398162 -0.154077c-0.0141319,-0.00720617 -0.0317408,-0.0138235 -0.0533873,-0.0204689 -0.0213381,-0.00664538 -0.0455643,-0.0118327 -0.0727066,-0.0161508 -0.0271143,-0.00434613 -0.055967,-0.00664538 -0.0868385,-0.00664538 -0.0767443,0.000280396 -0.145694,0.0132627 -0.206287,0.0386666 -0.0608739,0.0253758 -0.112523,0.0608739 -0.155227,0.106466 -0.0427043,0.0458727 -0.0753143,0.099232 -0.097802,0.160975 -0.0225158,0.0614627 -0.0337596,0.128393 -0.03404,0.2011 0.000280396,0.0747535 0.0109635,0.141964 0.0323016,0.201689 0.0216465,0.0597243 0.0522097,0.110784 0.0920259,0.153208 0.0401246,0.0424239 0.0880162,0.0747255 0.143703,0.0975216 0.0556866,0.0225158 0.118299,0.0337596 0.187248,0.03404 0.0369281,-0.000280396 0.0712766,-0.00288808 0.102989,-0.0080754 0.0314604,-0.00490692 0.0594439,-0.0112439 0.0836701,-0.0184781 0.0242542,-0.00748657 0.0438539,-0.0146927 0.0591635,-0.0219269l-0.0277031 -0.150601z"/>
  <path id="1234567891011121314" class="fil4" d="M10.0492 13.667l-0.135039 0 0 0.150601 0.135039 0 0 0.493384c0,0.0620235 0.00574811,0.113672 0.0173004,0.155507 0.0115523,0.0415546 0.0294415,0.0750059 0.0536677,0.10069 0.0210577,0.023385 0.0478916,0.0415546 0.0802212,0.0539481 0.0320212,0.0124215 0.0683605,0.0187585 0.108485,0.0187585 0.0337316,0 0.0640424,-0.00201885 0.0902874,-0.00605655 0.0262731,-0.0040377 0.0482,-0.00953345 0.0655004,-0.0164312l-0.00692577 -0.154077c-0.0118327,0.00344887 -0.0245346,0.00633694 -0.0383581,0.00863619 -0.0135712,0.00232728 -0.0303108,0.00347691 -0.0499385,0.00347691 -0.0421154,0 -0.072987,-0.0144404 -0.0923063,-0.0432931 -0.0196277,-0.0288527 -0.0291612,-0.0727066 -0.0288527,-0.131562l0 -0.482982 0.226756 0 0 -0.150601 -0.226756 0 0 -0.235448 -0.199081 0.062332 0 0.173116z"/>
 </g>
</svg>
